
<svg xmlns="http://www.w3.org/2000/svg" version="1.1" xmlns:xlink="http://www.w3.org/1999/xlink" preserveAspectRatio="none" x="0px" y="0px" width="250px" height="250px" viewBox="0 0 250 250">
<defs>
<g id="Layer1_0_FILL">
<path fill="#FFFFFF" fill-opacity="0" stroke="none" d="
M 125 -125
L -125 -125 -125 125 125 125 125 -125 Z"/>
</g>

<g id="Layer0_0_FILL">
<path fill="#FF8AF5" stroke="none" d="
M 10.05 8.6
L 10.5 -72.75 -96.85 -66.45 -90.55 0.65 -2.5 -6.9 10.05 8.6
M 25.15 -76.95
L 31.05 -34.6 81.35 -31.65 87.2 -82.4 25.15 -76.95
M 77.15 -13.65
L 32.3 -16.55 8.8 70.65 96.85 82.4 77.15 -13.65 Z"/>
</g>
</defs>

<g transform="matrix( 1, 0, 0, 1, 125,125) ">
<g transform="matrix( 1, 0, 0, 1, 0,0) ">
<use xlink:href="#Layer1_0_FILL"/>
</g>

<g transform="matrix( 1, 0, 0, 1, 0,0) ">
<use xlink:href="#Layer0_0_FILL"/>
</g>
</g>
</svg>
