
<svg xmlns="http://www.w3.org/2000/svg" version="1.1" xmlns:xlink="http://www.w3.org/1999/xlink" preserveAspectRatio="none" x="0px" y="0px" width="250px" height="250px" viewBox="0 0 250 250">
<defs>
<g id="Layer1_0_FILL">
<path fill="#FFFFFF" fill-opacity="0" stroke="none" d="
M 125 -125
L -125 -125 -125 125 125 125 125 -125 Z"/>
</g>

<g id="Layer0_0_FILL">
<path fill="#FF8AF5" stroke="none" d="
M -21.95 34.85
L -26.85 47.4 -65.75 52.8 -59.5 31.5 -79.95 19.4 -69.5 32.75 -84.95 75.35 -34.5 66.9 -46.15 96.65 58.6 102.9 34.85 38.2 -21.95 34.85
M 84.9 -53.2
L 46.95 -102.9 50.75 -50.45 -27.45 -44.2 -31.1 -97.85 -71.2 -40.7 -55.7 23.95 65.3 31.95 84.9 -53.2 Z"/>
</g>
</defs>

<g transform="matrix( 1, 0, 0, 1, 125,125) ">
<g transform="matrix( 1, 0, 0, 1, 0,0) ">
<use xlink:href="#Layer1_0_FILL"/>
</g>

<g transform="matrix( 1, 0, 0, 1, 0,0) ">
<use xlink:href="#Layer0_0_FILL"/>
</g>
</g>
</svg>
