
<svg xmlns="http://www.w3.org/2000/svg" version="1.1" xmlns:xlink="http://www.w3.org/1999/xlink" preserveAspectRatio="none" x="0px" y="0px" width="250px" height="250px" viewBox="0 0 250 250">
<defs>
<g id="Layer1_0_FILL">
<path fill="#FFFFFF" fill-opacity="0" stroke="none" d="
M 125 -125
L -125 -125 -125 125 125 125 125 -125 Z"/>
</g>

<g id="Layer0_0_FILL">
<path fill="#FF8AF5" stroke="none" d="
M 1.2 112.6
L 5 -28.45 -111.45 -54.1 -97.3 76.55 1.2 112.6
M -68.85 -21.55
L -67.8 -7.55 -85.65 -12.75 -83.1 13.9 -91.65 11.2 -95.85 -29.15 -68.85 -21.55
M -58.7 -4.85
L -59.6 -18.95 -31.25 -10.9 -29.7 42.9 -11.45 48.65 -11.2 84.9 -37.1 76.15 -40.25 0.5 -58.7 -4.85
M -48.85 11.35
L -48.15 24.55 -74.5 16.45 -75.7 3.3 -48.85 11.35
M -55.45 46.8
L -63.95 44.05 -62.2 67.55 -70.35 64.85 -72.4 41.35 -80.8 38.55 -78.45 62.2 -86.55 59.4 -90.3 23.8 -47.5 37.3 -45.6 73.25 -53.95 70.45 -55.45 46.8
M -28.95 67.4
L -20.2 70.3 -20.5 58.15 -29.35 55.35 -28.95 67.4
M 105.3 -113.5
L 0.9 -93.6 -111.3 -61.3 -53.35 -66.15 105.3 -113.5
M 10 -34.35
L 111.45 -66.15 36.75 -84.6 -73.25 -52.85 10 -34.35
M 111.45 -56.1
L 13.8 -27.9 10.4 113.5 102.8 76.55 111.45 -56.1 Z"/>
</g>
</defs>

<g transform="matrix( 1, 0, 0, 1, 125,125) ">
<g transform="matrix( 1, 0, 0, 1, 0,0) ">
<use xlink:href="#Layer1_0_FILL"/>
</g>

<g transform="matrix( 0.9291229248046875, 0, 0, 0.9291229248046875, 0,0) ">
<use xlink:href="#Layer0_0_FILL"/>
</g>
</g>
</svg>
