
<svg xmlns="http://www.w3.org/2000/svg" version="1.1" xmlns:xlink="http://www.w3.org/1999/xlink" preserveAspectRatio="none" x="0px" y="0px" width="250px" height="250px" viewBox="0 0 250 250">
<defs>
<g id="Layer1_0_FILL">
<path fill="#FFFFFF" fill-opacity="0" stroke="none" d="
M 125 -125
L -125 -125 -125 125 125 125 125 -125 Z"/>
</g>

<g id="Layer0_0_FILL">
<path fill="#FF8AF5" stroke="none" d="
M -48.75 -83.8
L -22.55 -55.85 -87.5 58.3 -14.85 102.1 57.05 87.45 87.45 32.05 35.4 -52.1 47.05 -74.2 22.45 -56.3 37.05 -16.3 7.45 -1.3 19.15 -35.85 -25.85 -82.95 -15.05 -102.1 -48.75 -83.8
M 33.7 41.2
L 28.7 27.45 47.05 -0.45 37.9 27.85 57.85 57.85 47.9 79.95 -16.3 93.7 -48.35 63.7 -12.1 32.05 -17.95 5.35 2.45 33.3 -2.95 49.1 33.7 41.2 Z"/>
</g>
</defs>

<g transform="matrix( 1, 0, 0, 1, 125,125) ">
<g transform="matrix( 1, 0, 0, 1, 0,0) ">
<use xlink:href="#Layer1_0_FILL"/>
</g>

<g transform="matrix( 1, 0, 0, 1, 0,0) ">
<use xlink:href="#Layer0_0_FILL"/>
</g>
</g>
</svg>
