
<svg xmlns="http://www.w3.org/2000/svg" version="1.1" xmlns:xlink="http://www.w3.org/1999/xlink" preserveAspectRatio="none" x="0px" y="0px" width="250px" height="250px" viewBox="0 0 250 250">
<defs>
<g id="Layer1_0_FILL">
<path fill="#FFFFFF" fill-opacity="0" stroke="none" d="
M 125 -125
L -125 -125 -125 125 125 125 125 -125 Z"/>
</g>

<g id="Layer0_0_FILL">
<path fill="#FF8AF5" stroke="none" d="
M 51.6 92.4
L 71.5 6.7 -75.35 18.6 -67.85 92.4 -53 92.4 -56.3 49.1 -19.05 47.75 -19.05 92.4 51.6 92.4
M 55.35 17.95
L 50.3 37.8 25.5 39.45 27.3 20.05 55.35 17.95
M 20.5 20.55
L 18.85 39.95 -6.2 41.7 -7.25 22.65 20.5 20.55
M 44.4 60.45
L 23.4 61.1 24.75 46.95 48.35 45.6 44.4 60.45
M 18.2 47.25
L 16.9 61.3 -5.45 61.8 -5.95 48.55 18.2 47.25
M 107.35 -0.8
L 87.15 -40.55 27.05 -34.55 -38.05 -92.4 -107.3 9.95 107.35 -0.8
M 23.6 -44.7
L 29.25 -41.7 59.4 -43.55 65.95 -86.7 19.5 -81 23.6 -44.7 Z"/>
</g>
</defs>

<g transform="matrix( 1, 0, 0, 1, 125,125) ">
<g transform="matrix( 1, 0, 0, 1, 0,0) ">
<use xlink:href="#Layer1_0_FILL"/>
</g>

<g transform="matrix( 1, 0, 0, 1, 0,0) ">
<use xlink:href="#Layer0_0_FILL"/>
</g>
</g>
</svg>
