
<svg xmlns="http://www.w3.org/2000/svg" version="1.1" xmlns:xlink="http://www.w3.org/1999/xlink" preserveAspectRatio="none" x="0px" y="0px" width="250px" height="250px" viewBox="0 0 250 250">
<defs>
<g id="Layer1_0_FILL">
<path fill="#FFFFFF" fill-opacity="0" stroke="none" d="
M 125 -125
L -125 -125 -125 125 125 125 125 -125 Z"/>
</g>

<g id="Layer0_0_FILL">
<path fill="#FF8AF5" stroke="none" d="
M 83.9 8.25
L 74 91.75 81.95 92.1 90.95 -2.55 83.9 8.25
M 75.9 24.85
L 42.2 32.8 47.6 101.8 65.6 103.35 75.9 24.85
M 41.8 27.85
L 76.45 20.45 78.35 11.4 37.75 19.4 41.8 27.85
M 93.75 -32.55
L 100.45 -103.3 -100.75 -88.2 -84.85 61 -41.05 3.7 -4.5 48.8 -40.05 86.7 41 90.3 35.2 31.65 22.6 14.9 30.2 13.7 7.1 -15.55 93.75 -32.55
M 16.1 -72.15
L 7.55 -55.45 -10.3 -60.45 -12.7 -78.75 16.1 -72.15
M 20 13.4
L 2.5 38.7 -28.2 -6.45 -13.45 -24.35 20 13.4
M -36 -78.75
L -20.45 -55.05 -38.75 -41.05 -60.5 -50.75 -57 -67.15 -36 -78.75
M -46.15 -11.15
L -73.75 -1 -85 -25.9 -51.2 -38.35 -46.15 -11.15
M 74.4 -22.65
L 17.8 -12.3 37.15 14.1 78.25 6.55 100.75 -27.5 81.7 -24.05 72.65 2.55 74.4 -22.65 Z"/>
</g>
</defs>

<g transform="matrix( 1, 0, 0, 1, 125,125) ">
<g transform="matrix( 1, 0, 0, 1, 0,0) ">
<use xlink:href="#Layer1_0_FILL"/>
</g>

<g transform="matrix( 1, 0, 0, 1, 0,0) ">
<use xlink:href="#Layer0_0_FILL"/>
</g>
</g>
</svg>
