
<svg xmlns="http://www.w3.org/2000/svg" version="1.1" xmlns:xlink="http://www.w3.org/1999/xlink" preserveAspectRatio="none" x="0px" y="0px" width="250px" height="250px" viewBox="0 0 250 250">
<defs>
<g id="Layer1_0_FILL">
<path fill="#FFFFFF" fill-opacity="0" stroke="none" d="
M 125 -125
L -125 -125 -125 125 125 125 125 -125 Z"/>
</g>

<g id="Layer0_0_FILL">
<path fill="#FF8AF5" stroke="none" d="
M 96.15 -63.85
L 94.9 -90.95 9.85 -95.55 14 89.6 97.8 84.15 93.65 -27.15 45.35 -23.7 47.05 0.85 71.45 -2 74.9 61.65 41.1 57.05 33.6 -68.85 96.15 -63.85
M -61.2 -65.95
L -30.9 -68.75 -38.1 95.6 1.8 92.45 -0.45 -94.25 -94.6 -87.6 -97.75 83.3 -59.3 88.3 -61.2 -65.95 Z"/>
</g>
</defs>

<g transform="matrix( 1, 0, 0, 1, 125,125) ">
<g transform="matrix( 1, 0, 0, 1, 0,0) ">
<use xlink:href="#Layer1_0_FILL"/>
</g>

<g transform="matrix( 1, 0, 0, 1, 0,0) ">
<use xlink:href="#Layer0_0_FILL"/>
</g>
</g>
</svg>
