
<svg xmlns="http://www.w3.org/2000/svg" version="1.1" xmlns:xlink="http://www.w3.org/1999/xlink" preserveAspectRatio="none" x="0px" y="0px" width="250px" height="250px" viewBox="0 0 250 250">
<defs>
<g id="Layer1_0_FILL">
<path fill="#FFFFFF" fill-opacity="0" stroke="none" d="
M 125 -125
L -125 -125 -125 125 125 125 125 -125 Z"/>
</g>

<g id="Layer0_0_FILL">
<path fill="#FF8AF5" stroke="none" d="
M 78.25 37.6
L 50.1 23.9 59.45 43.95 31.55 32.5 43.5 59.65 18.15 54.85 38.8 89.25 99.2 103.6 78.25 37.6
M 67.3 90.95
L 77.45 69.45 85.65 74.05 95.4 100.1 67.3 90.95
M -67.95 -72.45
L -73.4 -28.3 34.2 88.1 9.4 49.3 37.5 54.95 25.8 26 53.35 38.05 42.3 15.2 77.05 33.65 -23.5 -65.4 -67.95 -72.45
M -99.15 -56.3
L -93.55 -48.55 -87.55 -95.6 -41 -83.45 -49.75 -92 -93.1 -103.6 -99.15 -56.3
M -91.75 -35.75
L -86.2 -26.4 -78.4 -24.8 -71.3 -77.8 -21.85 -68.7 -16.9 -63.4 -15.1 -68.65 -21.4 -74 -84.65 -90.25 -91.75 -35.75 Z"/>
</g>
</defs>

<g transform="matrix( 1, 0, 0, 1, 125,125) ">
<g transform="matrix( 1, 0, 0, 1, 0,0) ">
<use xlink:href="#Layer1_0_FILL"/>
</g>

<g transform="matrix( 0.9951934814453125, 0, 0, 0.9951934814453125, 0,0) ">
<use xlink:href="#Layer0_0_FILL"/>
</g>
</g>
</svg>
