
<svg xmlns="http://www.w3.org/2000/svg" version="1.1" xmlns:xlink="http://www.w3.org/1999/xlink" preserveAspectRatio="none" x="0px" y="0px" width="250px" height="250px" viewBox="0 0 250 250">
<defs>
<g id="Layer1_0_FILL">
<path fill="#FFFFFF" fill-opacity="0" stroke="none" d="
M 125 -125
L -125 -125 -125 125 125 125 125 -125 Z"/>
</g>

<g id="Layer0_0_FILL">
<path fill="#FF8AF5" stroke="none" d="
M 12.4 -18.5
L 1.35 -7.45
Q 5.2 0.5 5.7 1.95 7.1 6.3 5.45 10.35 3.75 14.45 -0.3 16.35 -1.75 17.05 -9.95 20
L -9.95 35.6
Q -1.75 38.45 -0.3 39.15 3.75 41.35 5.45 45.2 7.1 49.25 5.7 53.85 5.2 55.5 1.35 62.95
L 12.4 74.05
Q 20.35 70.15 21.8 69.75 26.1 68.3 30.2 69.95 34.25 71.6 36.2 75.7 36.9 77.15 39.8 85.3
L 55.45 85.3
Q 58.3 77.15 59.05 75.7 61.2 71.6 65 69.95 69.15 68.3 73.45 69.75 74.85 70.15 82.85 74.05
L 93.9 62.95
Q 90.05 55 89.55 53.6 88.1 49.25 89.75 45.2 91.45 41.1 95.55 39.15 97.25 38.25 105.4 35.6
L 105.4 20
Q 96.55 16.85 95.55 16.35 91.45 14.2 89.75 10.35 88.1 6.3 89.55 1.95 90.05 0.5 93.9 -7.45
L 82.85 -18.5
Q 74.85 -14.6 73.45 -14.2 69.15 -12.75 65 -14.4 61.2 -16.05 59.05 -20.15 58.8 -20.65 55.45 -30.05
L 39.8 -30.05
Q 37.1 -21.8 36.2 -20.15 34.25 -16.05 30.2 -14.4 26.1 -12.75 21.8 -14.2 20.35 -14.6 12.4 -18.5
M 75.6 27.7
Q 75.6 39.55 67.6 47.55 59.25 55.5 47.75 55.5 35.9 55.5 27.9 47.55 19.9 39.55 19.9 27.7 19.9 16.15 27.9 8.15 35.9 -0.2 47.75 -0.2 59.25 -0.2 67.6 8.15 75.6 16.15 75.6 27.7
M -3.85 -5.35
L -5.6 -8.95 11.1 -25.65 14.65 -23.95
Q 22.05 -20.35 23.35 -19.9 25.7 -19.05 27.95 -20
L 27.9 -20
Q 30 -20.85 31 -22.95
L 31.15 -23.3
Q 31.9 -24.8 34.35 -32.2
L 35.55 -36.05 59.1 -36.05 60.45 -32.35
Q 63.65 -23.5 63.8 -23.05 65.05 -20.9 67.05 -19.95 69.2 -19.15 71.45 -19.9
L 71.5 -19.9
Q 72.85 -20.35 80.2 -23.95
L 83.8 -25.65 90.25 -19.2 93.9 -62.05 -27.1 -57.85 -43.9 -85.3 -105.35 -81.1 -90.05 52.8 0.55 48.9
Q 0.45 47.9 0.15 47 -0.8 45 -2.95 43.8 -3 43.8 -3.05 43.75
L -3.1 43.7
Q -4.8 43 -12 40.45
L -15.75 39.1 -15.75 15.7 -12 14.3
Q -4.3 11.55 -2.95 10.9
L -2.85 10.85
Q -0.8 9.9 0.1 7.85 0.95 5.65 0.2 3.3
L 0.2 3.25
Q -0.3 1.95 -3.85 -5.35 Z"/>
</g>
</defs>

<g transform="matrix( 1, 0, 0, 1, 125,125) ">
<g transform="matrix( 1, 0, 0, 1, 0,0) ">
<use xlink:href="#Layer1_0_FILL"/>
</g>

<g transform="matrix( 1, 0, 0, 1, 0,0) ">
<use xlink:href="#Layer0_0_FILL"/>
</g>
</g>
</svg>
