
<svg xmlns="http://www.w3.org/2000/svg" version="1.1" xmlns:xlink="http://www.w3.org/1999/xlink" preserveAspectRatio="none" x="0px" y="0px" width="250px" height="250px" viewBox="0 0 250 250">
<defs>
<g id="Layer1_0_FILL">
<path fill="#FFFFFF" fill-opacity="0" stroke="none" d="
M 125 -125
L -125 -125 -125 125 125 125 125 -125 Z"/>
</g>

<g id="Layer0_0_FILL">
<path fill="#FF8AF5" stroke="none" d="
M 38.65 -45.8
Q 35.05 -79.55 17.4 -98.75 -0.15 -118.1 -34.8 -117.95 -69.55 -117.75 -89.25 -95.1 -108.95 -72.35 -107.35 -39.3 -105.8 -6.2 -86.25 11.55 -66.7 29.35 -31.1 26.5 -15.25 25.3 -2.6 21.1
L 64 118 107.5 77.2 19.55 9.45
Q 21.5 7.65 23.4 5.95 42.4 -12.05 38.65 -45.8
M 14.1 -41.55
Q 14.25 -19.75 0.7 -8.85 -12.85 1.85 -34.8 3.8 -56.85 5.75 -70.75 -6.35 -84.65 -18.55 -86.45 -40.7 -88.15 -62.9 -73.6 -78.7 -58.95 -94.55 -36.95 -94.35 -15 -94.15 -0.5 -78.7 13.95 -63.4 14.1 -41.55 Z"/>
</g>
</defs>

<g transform="matrix( 1, 0, 0, 1, 125,125) ">
<g transform="matrix( 1, 0, 0, 1, 0,0) ">
<use xlink:href="#Layer1_0_FILL"/>
</g>

<g transform="matrix( 0.8661041259765625, 0, 0, 0.8661041259765625, 0,0) ">
<use xlink:href="#Layer0_0_FILL"/>
</g>
</g>
</svg>
