
<svg xmlns="http://www.w3.org/2000/svg" version="1.1" xmlns:xlink="http://www.w3.org/1999/xlink" preserveAspectRatio="none" x="0px" y="0px" width="250px" height="250px" viewBox="0 0 250 250">
<defs>
<g id="Layer1_0_FILL">
<path fill="#FFFFFF" fill-opacity="0" stroke="none" d="
M 125 -125
L -125 -125 -125 125 125 125 125 -125 Z"/>
</g>

<g id="Layer0_0_FILL">
<path fill="#FF8AF5" stroke="none" d="
M 32.25 99.3
Q 51 93.15 66.6 79.45
L -4.15 -25.5 32.25 99.3
M 71.95 -69.5
Q 42.15 -99.3 0 -99.3 -42.15 -99.3 -71.95 -69.5 -101.75 -39.7 -101.75 2.45 -101.75 43.65 -73.3 73.05
L -4.15 -25.5 71.25 75.15
Q 71.6 74.75 71.95 74.4 79.5 66.85 85.1 58.55 90.95 49.9 94.75 40.4 101.75 22.85 101.75 2.45 101.75 -39.7 71.95 -69.5 Z"/>
</g>
</defs>

<g transform="matrix( 1, 0, 0, 1, 125,125) ">
<g transform="matrix( 1, 0, 0, 1, 0,0) ">
<use xlink:href="#Layer1_0_FILL"/>
</g>

<g transform="matrix( 1, 0, 0, 1, 0,0) ">
<use xlink:href="#Layer0_0_FILL"/>
</g>
</g>
</svg>
