
<svg xmlns="http://www.w3.org/2000/svg" version="1.1" xmlns:xlink="http://www.w3.org/1999/xlink" preserveAspectRatio="none" x="0px" y="0px" width="250px" height="250px" viewBox="0 0 250 250">
<defs>
<g id="Layer1_0_FILL">
<path fill="#FFFFFF" fill-opacity="0" stroke="none" d="
M 125 -125
L -125 -125 -125 125 125 125 125 -125 Z"/>
</g>

<g id="Layer0_0_FILL">
<path fill="#FF8AF5" stroke="none" d="
M -93.1 33.75
L -88.9 63.3 91.2 42.95 98.3 -20.75 -93.1 33.75
M 85.95 89.75
L 87.55 75.5 48.8 80.05 73.8 64.15 23.8 69.6 62.95 56.65 -87.85 70.7 -83.55 101.05 85.95 89.75
M 68.3 -20
L 35.4 -20 84.55 -47.9 57.5 -47.9 102.95 -62.2 107.3 -101.05 -107.25 -66.1 -94.65 22.9 68.3 -20 Z"/>
</g>
</defs>

<g transform="matrix( 1, 0, 0, 1, 125,125) ">
<g transform="matrix( 1, 0, 0, 1, 0,0) ">
<use xlink:href="#Layer1_0_FILL"/>
</g>

<g transform="matrix( 1, 0, 0, 1, 0,0) ">
<use xlink:href="#Layer0_0_FILL"/>
</g>
</g>
</svg>
