
<svg xmlns="http://www.w3.org/2000/svg" version="1.1" xmlns:xlink="http://www.w3.org/1999/xlink" preserveAspectRatio="none" x="0px" y="0px" width="190px" height="50px" viewBox="0 0 190 50">
<defs>
<g id="Layer2_0_FILL">
<path fill="#FFFFFF" stroke="none" d="
M 190 50
L 190 0 0 0 0 50 190 50 Z"/>
</g>

<g id="Layer1_0_FILL">
<path fill="#000000" stroke="none" d="
M 31.25 19.7
Q 27.85 16.35 23.3 16.35
L 12 16.35 12 5 6.3 5 6.3 44.65 23.3 44.65
Q 27.85 44.65 31.25 41.25 34.6 37.95 34.6 33.3
L 34.6 27.65
Q 34.6 23.05 31.25 19.7
M 23.3 22
Q 25.6 22 27.25 23.65 28.95 25.35 28.95 27.65
L 28.95 33.3
Q 28.95 35.55 27.25 37.3 25.6 38.95 23.3 38.95
L 12 38.95 12 22 23.3 22
M 51.55 16.35
Q 46.9 16.35 43.5 19.6 40.25 22.95 40.25 27.65
L 40.25 33.3
Q 40.25 38 43.5 41.3 46.9 44.65 51.55 44.65 55.1 44.65 59.35 40.35
L 62.9 36.85 62.9 44.65 68.5 44.65 68.5 16.35 51.55 16.35
M 47.6 23.65
Q 49.25 22 51.55 22
L 62.9 22 62.9 30.5 57.2 36.1
Q 54.4 38.95 51.55 38.95 49.25 38.95 47.6 37.3 45.95 35.55 45.95 33.3
L 45.95 27.65
Q 45.95 25.35 47.6 23.65
M 81.45 23.65
Q 83.1 22 85.4 22
L 91.05 22
Q 93.4 22 95 23.65 96.7 25.35 96.7 27.65
L 102.4 27.65
Q 102.4 23.05 98.95 19.7 95.65 16.35 91.05 16.35
L 85.4 16.35
Q 80.8 16.35 77.45 19.7 74.1 23.05 74.1 27.65
L 74.1 33.3
Q 74.1 37.95 77.45 41.25 80.8 44.65 85.4 44.65
L 102.4 44.65 102.4 38.95 85.4 38.95
Q 83.1 38.95 81.45 37.3 79.75 35.55 79.75 33.3
L 79.75 27.65
Q 79.75 25.35 81.45 23.65
M 132.35 44.65
L 136.3 44.65 136.3 40.75 123.2 27.65 134.5 16.35 126.8 16.35 113.65 29.4 113.65 5 108.05 5 108.05 44.65 113.65 44.65 113.65 37.2 119.35 31.5 132.35 44.65 Z"/>
</g>

<g id="Layer0_0_FILL">
<path fill="#000000" stroke="none" d="
M 183.9 5.15
L 164.15 24.9 183.9 44.65 183.9 5.15
M 164.15 44.65
L 164.15 24.9 164.15 5.15 144.45 24.9 164.15 44.65 Z"/>
</g>
</defs>

<g transform="matrix( 1, 0, 0, 1, 0,0) ">
<use xlink:href="#Layer2_0_FILL"/>
</g>

<g transform="matrix( 1, 0, 0, 1, 0,0) ">
<use xlink:href="#Layer1_0_FILL"/>
</g>

<g transform="matrix( 1, 0, 0, 1, 0,0) ">
<use xlink:href="#Layer0_0_FILL"/>
</g>
</svg>
