<svg xmlns="http://www.w3.org/2000/svg" xmlns:xlink="http://www.w3.org/1999/xlink" preserveAspectRatio="none"
    width="190" height="50">
    <defs>
        <path fill="#FFF" d="M190 50V0H0v50h190z" id="prefix__a" />
        <path
            d="M82.85 33.3v-5.65q0-4.6-3.35-7.95-3.4-3.35-7.95-3.35h-11.3V5h-5.7v39.65h17q4.55 0 7.95-3.4 3.35-3.3 3.35-7.95M71.55 22q2.3 0 3.95 1.65 1.7 1.7 1.7 4v5.65q0 2.25-1.7 4-1.65 1.65-3.95 1.65h-11.3V22h11.3m28.25-5.65q-4.65 0-8.05 3.25-3.25 3.35-3.25 8.05v5.65q0 4.7 3.25 8 3.4 3.35 8.05 3.35 3.55 0 7.8-4.3l3.55-3.5v7.8h5.6v-28.3H99.8m-3.95 7.3Q97.5 22 99.8 22h11.35v8.5l-5.7 5.6q-2.8 2.85-5.65 2.85-2.3 0-3.95-1.65-1.65-1.75-1.65-4v-5.65q0-2.3 1.65-4m37.8-7.3q-4.6 0-7.95 3.35-3.35 3.35-3.35 7.95v5.65q0 4.65 3.35 7.95 3.35 3.4 7.95 3.4h17v-5.7h-17q-2.3 0-3.95-1.65-1.7-1.75-1.7-4v-5.65q0-2.3 1.7-4 1.65-1.65 3.95-1.65h5.65q2.35 0 3.95 1.65 1.7 1.7 1.7 4h5.7q0-4.6-3.45-7.95-3.3-3.35-7.9-3.35h-5.65m49.1 0h-7.7L161.9 29.4V5h-5.6v39.65h5.6V37.2l5.7-5.7 13 13.15h3.95v-3.9l-13.1-13.1 11.3-11.3z"
            id="prefix__b" />
        <path d="M24.65 5.15L4.95 24.9l19.7 19.75V5.15m19.75 39.5V5.15L24.65 24.9 44.4 44.65z" id="prefix__c" />
    </defs>
    <use xlink:href="#prefix__a" />
    <use xlink:href="#prefix__b" transform="translate(.45 .2)" />
    <use xlink:href="#prefix__c" transform="translate(.05 .1)" />
</svg>