
<svg xmlns="http://www.w3.org/2000/svg" version="1.1" xmlns:xlink="http://www.w3.org/1999/xlink" preserveAspectRatio="none" x="0px" y="0px" width="190px" height="50px" viewBox="0 0 190 50">
<defs>
<g id="Layer2_0_FILL">
<path fill="#000000" stroke="none" d="
M 190 50
L 190 0 0 0 0 50 190 50 Z"/>
</g>

<g id="Layer1_0_FILL">
<path fill="#FF8AF5" stroke="none" d="
M 83.25 33.5
L 83.25 27.85
Q 83.25 23.25 79.9 19.95 76.55 16.6 72 16.6
L 60.7 16.6 60.7 5.25 55 5.25 55 44.9 72 44.9
Q 76.5 44.9 79.9 41.5 83.25 38.15 83.25 33.5
M 72 22.25
Q 74.3 22.25 75.9 23.85 77.6 25.55 77.6 27.85
L 77.6 33.5
Q 77.6 35.8 75.9 37.5 74.3 39.2 72 39.2
L 60.7 39.2 60.7 22.25 72 22.25
M 100.25 16.6
Q 95.55 16.6 92.15 19.85 88.9 23.2 88.9 27.9
L 88.9 33.55
Q 88.9 38.25 92.15 41.55 95.65 44.9 100.25 44.9 103.75 44.9 108.05 40.6
L 111.6 37.1 111.6 44.9 117.2 44.9 117.2 16.6 100.25 16.6
M 96.3 23.85
L 96.3 23.9
Q 97.95 22.25 100.25 22.25
L 111.6 22.25 111.6 30.75 105.9 36.3
Q 103.05 39.15 100.25 39.15 97.95 39.15 96.3 37.5 94.65 35.85 94.65 33.5
L 94.65 27.85
Q 94.65 25.5 96.3 23.85
M 139.75 16.55
L 134.1 16.55
Q 129.5 16.55 126.15 19.9 122.8 23.25 122.8 27.85
L 122.8 33.5
Q 122.8 38.2 126.15 41.45 129.4 44.85 134.1 44.85
L 151.1 44.85 151.1 39.15 134.1 39.15
Q 131.8 39.15 130.15 37.5 128.45 35.8 128.45 33.5
L 128.45 27.85
Q 128.45 25.55 130.15 23.85 131.8 22.2 134.1 22.2
L 139.75 22.2
Q 142.1 22.2 143.65 23.85 145.35 25.55 145.35 27.85
L 151.05 27.85
Q 151.05 23.3 147.6 19.9 144.25 16.55 139.75 16.55
M 162.3 44.9
L 162.3 37.45 168 31.75 181 44.9 184.95 44.9 184.95 41 171.85 27.85 183.15 16.55 175.5 16.55 162.3 29.6 162.3 5.25 156.7 5.25 156.7 44.9 162.3 44.9 Z"/>
</g>

<g id="arrow_0_Layer0_0_FILL">
<path fill="#FF8AF5" stroke="none" d="
M 39.5 0
L 19.75 19.65 19.75 0 19.7 0 0 19.7 19.75 39.5 19.75 19.75 39.5 39.5 39.5 0 Z"/>
</g>
</defs>

<g transform="matrix( 1, 0, 0, 1, 0,0) ">
<use xlink:href="#Layer2_0_FILL"/>
</g>

<g transform="matrix( 1, 0, 0, 1, 0,0) ">
<use xlink:href="#Layer1_0_FILL"/>
</g>

<g transform="matrix( 1, 0, 0, 1, 4.95,5.3) ">
<g transform="matrix( 1, 0, 0, 1, 0,0) ">
<use xlink:href="#arrow_0_Layer0_0_FILL"/>
</g>
</g>
</svg>
