
<svg xmlns="http://www.w3.org/2000/svg" version="1.1" xmlns:xlink="http://www.w3.org/1999/xlink" preserveAspectRatio="none" x="0px" y="0px" width="190px" height="50px" viewBox="0 0 190 50">
<defs>
<g id="Layer2_0_FILL">
<path fill="#000000" stroke="none" d="
M 190 50
L 190 0 0 0 0 50 190 50 Z"/>
</g>

<g id="Layer1_0_FILL">
<path fill="#FF8AF5" stroke="none" d="
M 27.45 11
L 27.45 5.35 21.85 5.35
Q 17.35 5.35 13.9 8.7 10.65 12.05 10.65 16.6
L 5 16.6 5 22.2 10.65 22.2 10.65 44.7 16.25 44.7 16.25 22.2 21.9 22.2 21.9 16.6 16.25 16.6
Q 16.25 14.25 17.9 12.65 19.55 11 21.9 11
L 27.45 11
M 49.95 16.65
L 44.35 16.65 44.35 32.05
Q 44.35 34.95 43.5 37.1 42.65 39.2 41.55 39.2 40.35 39.2 39.55 37.1 38.75 35.05 38.75 32.1
L 38.75 16.65 33.1 16.65 33.1 32.05
Q 33.1 37.35 35.55 41 38 44.7 41.55 44.7 44.5 44.7 46.8 39.05
L 47.5 39.05
Q 49.75 44.7 52.75 44.7 56.25 44.7 58.7 41 61.2 37.3 61.2 32.05
L 61.2 16.6 55.55 16.6 55.55 32.05
Q 55.55 34.85 54.75 37.1 53.9 39.1 52.75 39.1 51.55 39.1 50.8 37.1 49.95 35.1 49.95 32.1
L 49.95 16.65
M 94.95 44.7
L 94.95 5.35 89.3 5.35 89.3 16.65 78.1 16.65
Q 73.45 16.65 70.2 19.95 66.85 23.25 66.85 27.9
L 66.85 33.45
Q 66.85 38.15 70.2 41.4 73.45 44.7 78.1 44.7
L 94.95 44.7
M 89.3 22.25
L 89.3 39.1 78.1 39.1
Q 75.8 39.1 74.15 37.45 72.5 35.75 72.5 33.45
L 72.5 27.85
Q 72.5 25.6 74.15 23.85 75.8 22.2 78.1 22.25
L 89.3 22.25 Z"/>
</g>

<g id="arrow_0_Layer0_0_FILL">
<path fill="#FF8AF5" stroke="none" d="
M 39.5 0
L 19.75 19.65 19.75 0 19.7 0 0 19.7 19.75 39.5 19.75 19.75 39.5 39.5 39.5 0 Z"/>
</g>
</defs>

<g transform="matrix( 1, 0, 0, 1, 0,0) ">
<use xlink:href="#Layer2_0_FILL"/>
</g>

<g transform="matrix( 1, 0, 0, 1, 0,0) ">
<use xlink:href="#Layer1_0_FILL"/>
</g>

<g transform="matrix( -1, 0, 0, 1, 185,5.35) ">
<g transform="matrix( 1, 0, 0, 1, 0,0) ">
<use xlink:href="#arrow_0_Layer0_0_FILL"/>
</g>
</g>
</svg>
