
<svg xmlns="http://www.w3.org/2000/svg" version="1.1" xmlns:xlink="http://www.w3.org/1999/xlink" preserveAspectRatio="none" x="0px" y="0px" width="190px" height="50px" viewBox="0 0 190 50">
<defs>
<g id="Layer2_0_FILL">
<path fill="#FFFFFF" stroke="none" d="
M 190 50
L 190 0 0 0 0 50 190 50 Z"/>
</g>

<g id="Layer1_0_FILL">
<path fill="#000000" stroke="none" d="
M 34.85 10.85
L 34.85 5.2 29.25 5.2
Q 24.65 5.2 21.3 8.55 18 11.8 18 16.45
L 12.35 16.45 12.35 22.05 18 22.05 18 44.55 23.6 44.55 23.6 22.05 29.25 22.05 29.25 16.45 23.6 16.45
Q 23.6 14.1 25.25 12.5 26.95 10.85 29.25 10.85
L 34.85 10.85
M 68.55 16.45
L 62.9 16.45 62.9 31.9
Q 62.9 34.85 62.1 36.9 61.3 38.9 60.1 38.9 58.9 38.9 58.15 36.9 57.3 34.85 57.3 31.9
L 57.3 16.45 51.7 16.45 51.7 31.9
Q 51.7 34.85 50.85 36.9 50.05 39 48.9 39 47.7 39 46.9 36.9 46.1 34.85 46.1 31.9
L 46.1 16.45 40.45 16.45 40.45 31.9
Q 40.45 37.15 42.9 40.85 45.4 44.55 48.9 44.55 51.85 44.55 54.15 38.9
L 54.85 38.9
Q 57.15 44.55 60.1 44.55 63.6 44.55 66.05 40.85 68.55 37.15 68.55 31.9
L 68.55 16.45
M 96.65 16.45
L 85.45 16.45
Q 80.8 16.45 77.55 19.75 74.2 23.1 74.2 27.7
L 74.2 33.3
Q 74.2 37.9 77.55 41.2 80.8 44.55 85.45 44.55
L 102.3 44.55 102.3 5.2 96.65 5.2 96.65 16.45
M 85.45 22.05
L 96.65 22.05 96.65 38.9 85.45 38.9
Q 83.15 38.9 81.5 37.25 79.85 35.6 79.85 33.3
L 79.85 27.7
Q 79.85 25.4 81.5 23.7 83.15 22.05 85.45 22.05 Z"/>
</g>

<g id="Layer0_0_FILL">
<path fill="#000000" stroke="none" d="
M 144.4 5.15
L 144.4 44.65 164.15 24.9 144.4 5.15
M 183.85 24.9
L 164.15 5.15 164.15 24.9 164.15 44.65 183.85 24.9 Z"/>
</g>
</defs>

<g transform="matrix( 1, 0, 0, 1, 0,0) ">
<use xlink:href="#Layer2_0_FILL"/>
</g>

<g transform="matrix( 1, 0, 0, 1, -7.35,0.15) ">
<use xlink:href="#Layer1_0_FILL"/>
</g>

<g transform="matrix( 1, 0, 0, 1, 1.2,0.1) ">
<use xlink:href="#Layer0_0_FILL"/>
</g>
</svg>
