<svg xmlns="http://www.w3.org/2000/svg" xmlns:xlink="http://www.w3.org/1999/xlink" preserveAspectRatio="none"
    width="190" height="50">
    <defs>
        <path fill="#FFF" d="M190 50V0H0v50h190z" id="prefix__a" />
        <path
            d="M34.85 10.85V5.2h-5.6q-4.6 0-7.95 3.35-3.3 3.25-3.3 7.9h-5.65v5.6H18v22.5h5.6v-22.5h5.65v-5.6H23.6q0-2.35 1.65-3.95 1.7-1.65 4-1.65h5.6m33.7 5.6H62.9V31.9q0 2.95-.8 5-.8 2-2 2t-1.95-2q-.85-2.05-.85-5V16.45h-5.6V31.9q0 2.95-.85 5-.8 2.1-1.95 2.1-1.2 0-2-2.1-.8-2.05-.8-5V16.45h-5.65V31.9q0 5.25 2.45 8.95 2.5 3.7 6 3.7 2.95 0 5.25-5.65h.7q2.3 5.65 5.25 5.65 3.5 0 5.95-3.7 2.5-3.7 2.5-8.95V16.45m28.1 0h-11.2q-4.65 0-7.9 3.3-3.35 3.35-3.35 7.95v5.6q0 4.6 3.35 7.9 3.25 3.35 7.9 3.35h16.85V5.2h-5.65v11.25m-11.2 5.6h11.2V38.9h-11.2q-2.3 0-3.95-1.65-1.65-1.65-1.65-3.95v-5.6q0-2.3 1.65-4 1.65-1.65 3.95-1.65z"
            id="prefix__b" />
        <path d="M144.4 5.15v39.5l19.75-19.75L144.4 5.15m39.45 19.75l-19.7-19.75v39.5l19.7-19.75z" id="prefix__c" />
    </defs>
    <use xlink:href="#prefix__a" />
    <use xlink:href="#prefix__b" transform="translate(-7.35 .15)" />
    <use xlink:href="#prefix__c" transform="translate(1.2 .1)" />
</svg>