
<svg xmlns="http://www.w3.org/2000/svg" version="1.1" xmlns:xlink="http://www.w3.org/1999/xlink" preserveAspectRatio="none" x="0px" y="0px" width="142px" height="37px" viewBox="0 0 142 37">
<defs>
<g id="assets_r_logo_1_Layer0_0_FILL">
<path fill="#FF8AF5" stroke="none" d="
M -25.15 -18.6
L -35.45 -18.6 -35.45 5.35 -14.85 5.35 -1.15 -1.5 -1.15 -18.6 -11.45 -18.6 -11.45 -6.7 -14.9 -4.95 -25.15 -4.95 -25.15 -18.6
M -31.95 -15.15
L -28.6 -15.15 -28.6 -1.5 -14.85 -1.5 -8 -4.95 -8 -15.15 -4.6 -15.15 -4.6 -3.2 -14.9 1.9 -31.95 1.9 -31.95 -15.15
M -61.15 -17.25
L -61.15 -18.6 -71.45 -18.6 -71.45 5.35 -61.15 5.35 -61.15 -6.6 -57.75 -8.3 -37.15 -8.3 -37.15 -18.6 -58.65 -18.6 -61.15 -17.25
M -65.1 -15.15
L -67.95 -13.6 -67.95 -15.15 -65.1 -15.15
M -40.65 -15.15
L -40.65 -11.8 -57.75 -11.8 -64.6 -8.3 -64.6 1.9 -67.95 1.9 -67.95 -10.05 -57.75 -15.15 -40.65 -15.15
M 70.85 18.45
L 70.85 8.15 -71.45 8.15 -71.45 18.45 70.85 18.45
M 67.4 11.6
L 67.4 15 -67.95 15 -67.95 11.6 67.4 11.6
M 36.6 -18.6
L 36.6 -1.5 50.25 5.35 70.85 5.35 70.85 -4.95 50.25 -4.95 46.9 -6.6 70.85 -6.6 70.85 -16.9 46.9 -16.9 46.9 -18.6 36.6 -18.6
M 40.05 -3.2
L 40.05 -15.15 43.4 -15.15 43.4 -13.5 67.4 -13.5 67.4 -10.05 43.4 -10.05 43.4 -4.95 50.25 -1.5 67.4 -1.5 67.4 1.9 50.35 1.9 40.05 -3.2
M 14.25 -18.6
L 0.6 -11.8 0.6 5.35 24.55 5.35 34.85 0.25 34.85 -18.6 14.25 -18.6
M 4.05 -6.6
L 4.05 -10.05 14.25 -15.15 31.4 -15.15 31.4 -11.8 14.25 -11.8 7.4 -8.3 7.4 -6.6 4.05 -6.6
M 28 -6.6
L 31.4 -6.6 31.4 -1.5 24.55 1.9 4.05 1.9 4.05 -1.5 22.9 -1.5 28 -4.1 28 -6.6 Z"/>
</g>
</defs>

<g transform="matrix( 1, 0, 0, 1, 71.45,18.6) ">
<g transform="matrix( 1, 0, 0, 1, 0,0) ">
<use xlink:href="#assets_r_logo_1_Layer0_0_FILL"/>
</g>
</g>
</svg>
