
<svg xmlns="http://www.w3.org/2000/svg" version="1.1" xmlns:xlink="http://www.w3.org/1999/xlink" preserveAspectRatio="none" x="0px" y="0px" width="112px" height="21px" viewBox="0 0 112 21">
<defs>
<g id="r_logo2_0_Layer0_0_FILL">
<path fill="#FF8AF5" stroke="none" d="
M -23.1 -10.8
L -27.75 -10.8 -27.75 5.2 -0.55 5.2 -0.55 -10.8 -5.2 -10.8 -5.2 0.55 -23.1 0.55 -23.1 -10.8
M -28.85 -6.15
L -28.85 -10.8 -56.05 -10.8 -56.05 5.2 -51.4 5.2 -51.4 -6.15 -28.85 -6.15
M 27.75 10.8
L 27.75 6.15 -56.05 6.15 -56.05 10.8 27.75 10.8
M 33.5 -10.8
L 28.85 -10.8 28.85 10.8 56.05 10.8 56.05 6.15 33.5 6.15 33.5 -0.55 56.05 -0.55 56.05 -5.2 33.5 -5.2 33.5 -10.8
M 5.2 -5.05
L 5.2 -6.15 27.75 -6.15 27.75 -10.8 0.55 -10.8 0.55 -0.55 23.1 -0.55 23.1 0.55 0.55 0.55 0.55 5.2 27.75 5.2 27.75 -5.05 5.2 -5.05 Z"/>
</g>
</defs>

<g transform="matrix( 1, 0, 0, 1, 56.05,10.8) ">
<g transform="matrix( 1, 0, 0, 1, 0,0) ">
<use xlink:href="#r_logo2_0_Layer0_0_FILL"/>
</g>
</g>
</svg>
