
<svg xmlns="http://www.w3.org/2000/svg" version="1.1" xmlns:xlink="http://www.w3.org/1999/xlink" preserveAspectRatio="none" x="0px" y="0px" width="654px" height="186px" viewBox="0 0 654 186">
<defs>
<g id="Layer1_0_FILL">
<path fill="#000000" stroke="none" d="
M 654.6 -0.05
L -0.05 -0.05 -0.05 186.8 654.6 186.8 654.6 -0.05 Z"/>
</g>

<g id="Layer0_0_FILL">
<path fill="#43003E" stroke="none" d="
M 114.8 0
L 100.45 0 145.25 89.6 337.65 0 321.1 0 151.65 74.85 114.8 0
M 462 0
L 404.85 0 129.9 163.15 30 0 0 0 0 186.85 285.5 186.85 462 0
M 388.9 0
L 361.75 0 139.5 113.85 79.2 0 49.8 0 133.05 140.75 388.9 0 Z"/>
</g>
</defs>

<g transform="matrix( 1, 0, 0, 1, 0,0) ">
<use xlink:href="#Layer1_0_FILL"/>
</g>

<g transform="matrix( 1, 0, 0, 1, 0,0) ">
<use xlink:href="#Layer0_0_FILL"/>
</g>
</svg>
