
<svg xmlns="http://www.w3.org/2000/svg" version="1.1" xmlns:xlink="http://www.w3.org/1999/xlink" preserveAspectRatio="none" x="0px" y="0px" width="640px" height="180px" viewBox="0 0 640 180">
<defs>
<g id="Layer0_0_FILL">
<path fill="#260023" stroke="none" d="
M 647.05 -2.55
L 454.4 -2.55 277.85 184.35 647.05 184.35 647.05 -2.55
M 313.45 -2.55
L 107.15 -2.55 144 72.35 313.45 -2.55
M 92.8 -2.55
L 71.55 -2.55 131.85 111.35 354.15 -2.55 330 -2.55 137.6 87.05 92.8 -2.55
M 42.15 -2.55
L 22.35 -2.55 122.25 160.65 397.2 -2.55 381.25 -2.55 125.45 138.25 42.15 -2.55 Z"/>

<path fill="#43003E" stroke="none" d="
M 454.4 -2.55
L 397.2 -2.55 122.25 160.65 22.35 -2.55 -7.7 -2.55 -7.7 184.35 277.85 184.35 454.4 -2.55
M 107.15 -2.55
L 92.8 -2.55 137.6 87.05 330 -2.55 313.45 -2.55 144 72.35 107.15 -2.55
M 71.55 -2.55
L 42.15 -2.55 125.45 138.25 381.25 -2.55 354.15 -2.55 131.85 111.35 71.55 -2.55 Z"/>
</g>
</defs>

<g transform="matrix( 1, 0, 0, 1, 0,0) ">
<use xlink:href="#Layer0_0_FILL"/>
</g>
</svg>
