<?xml version="1.0" standalone="no"?>
<!DOCTYPE svg PUBLIC "-//W3C//DTD SVG 20010904//EN"
 "http://www.w3.org/TR/2001/REC-SVG-20010904/DTD/svg10.dtd">
<svg version="1.0" xmlns="http://www.w3.org/2000/svg"
 width="1052.000000pt" height="1052.000000pt" viewBox="0 0 1052.000000 1052.000000"
 preserveAspectRatio="xMidYMid meet">
<metadata>
Created by potrace 1.11, written by Peter Selinger 2001-2013
</metadata>
<g transform="translate(0.000000,1052.000000) scale(0.100000,-0.100000)"
fill="#000000" stroke="none">
<path d="M7801 5740 c-514 -54 -921 -312 -1120 -710 -94 -188 -134 -365 -134
-595 0 -166 12 -272 48 -409 85 -324 280 -580 609 -797 153 -102 328 -190 651
-329 532 -229 677 -315 765 -452 81 -124 94 -300 32 -432 -62 -132 -191 -227
-378 -278 -65 -17 -109 -21 -244 -22 -169 -1 -227 7 -350 46 -224 72 -414 228
-582 480 l-45 67 -399 -231 c-219 -127 -401 -232 -403 -234 -7 -6 74 -144 139
-236 241 -342 616 -593 1049 -702 450 -114 971 -95 1358 50 491 183 788 530
868 1012 24 141 16 454 -14 588 -74 335 -237 579 -531 799 -204 151 -412 261
-893 469 -419 181 -560 266 -635 383 -54 83 -65 127 -66 248 -1 104 1 114 31
177 41 88 98 148 181 191 97 50 154 60 296 55 131 -6 205 -26 301 -83 70 -41
168 -144 234 -245 l57 -88 380 244 c242 156 378 250 378 259 -5 52 -164 263
-290 386 -271 262 -591 383 -1039 394 -93 2 -208 0 -254 -5z"/>
<path d="M4730 4028 c0 -915 -5 -1717 -9 -1783 -23 -313 -126 -463 -350 -511
-79 -17 -230 -18 -303 -3 -172 36 -322 175 -467 432 -19 33 -38 56 -45 54 -7
-3 -174 -103 -372 -222 -197 -120 -374 -226 -391 -237 -18 -11 -33 -23 -33
-27 0 -12 101 -183 154 -261 123 -181 364 -384 567 -479 527 -247 1276 -202
1703 103 281 201 444 491 513 917 15 94 17 272 20 1892 l4 1787 -496 0 -495 0
0 -1662z"/>
</g>
</svg>
