
<svg xmlns="http://www.w3.org/2000/svg" version="1.1" xmlns:xlink="http://www.w3.org/1999/xlink" preserveAspectRatio="none" x="0px" y="0px" width="337px" height="262px" viewBox="0 0 337 262">
<defs>
<g id="assets_r_logo_6_Layer0_0_FILL">
<path fill="#FF8AF5" stroke="none" d="
M -2.75 8.3
L -2.75 19.45 2.8 19.45 2.8 2.75 -25 2.75 -25 19.45 -19.4 19.45 -19.4 8.3 -13.85 8.3 -13.85 19.45 -8.3 19.45 -8.3 8.3 -2.75 8.3
M -2.75 -19.45
L -2.75 -13.9 8.35 -13.9 8.35 19.45 25 19.45 25 2.75 13.9 2.75 13.9 -19.45 -2.75 -19.45
M 13.9 13.9
L 13.9 8.3 19.45 8.3 19.45 13.9 13.9 13.9
M -25 -19.45
L -25 -2.8 -19.4 -2.8 -19.4 -13.9 -8.3 -13.9 -8.3 -19.45 -25 -19.45
M 2.8 -2.8
L 2.8 -8.35 -13.85 -8.35 -13.85 -2.8 2.8 -2.8 Z"/>
</g>
</defs>

<g transform="matrix( 6.7523193359375, 0, 0, 6.7523193359375, 168.8,131.35) ">
<g transform="matrix( 1, 0, 0, 1, 0,0) ">
<use xlink:href="#assets_r_logo_6_Layer0_0_FILL"/>
</g>
</g>
</svg>
